<?xml version="1.0" encoding="utf-8"?>
<!-- Modified from https://www.svgrepo.com/svg/401437/duck -->
<svg viewBox="0 0 64 44" xmlns="http://www.w3.org/2000/svg" aria-hidden="true" role="img" class="iconify iconify--emojione" preserveAspectRatio="xMidYMid meet" fill="#000000" xmlns:bx="https://boxy-svg.com" width="64px" height="44px"><defs><bx:export><bx:file format="svg"/></bx:export></defs><g transform="translate(14.8, 2) scale(0.6)"><path d="M25.5 13.4c0-4.4-3.3-8-7.3-8s-7.3 3.6-7.3 8c0 2.4 1.7 5 2.6 7.1c.8 1.8.6 8 .6 8h8.1s0-6.2.7-8c.9-2.1 2.6-4.7 2.6-7.1" fill="#83bf4f"/><path d="M 51.561 42.503 C 52.31 41.772 51.617 42.485 51.617 42.485 C 56.617 36.885 58.9 30.4 58.9 30.4 C 54.8 34.9 52.3 35.4 52.3 35.4 C 54.9 32.7 58.4 23.5 58.4 23.5 C 58.4 23.5 52.1 28.9 46.8 31.4 C 20.8 43.7 22.2 28.5 22.2 28.5 L 14.1 28.5 C 14.1 35.4 10.343 41.091 11.8 44.5 C 17.7 57.1 39.831 52.461 48.231 45.161 C 50.731 43.661 51.561 42.503 51.561 42.503 Z" fill="#d3976e"/><path d="M16.5 17.9s0 1-1.8 2.6c-1.4 1.2-2.7 2.4-4.1 2.4c-2.1 0-3.4-2.3-.4-3.4c2.9-1.1 4.7-.3 6.3-1.6" fill="#f29a2e"/><path d="M11.9 15.9c-1.4 0-3.9 2.2-6.2.6c-.4-.3-1-1.5-1.7-.7c-.7.8 3.1 8.7 12.5 2c0 .1-.6-1.9-4.6-1.9" fill="#ffd93b"/><path fill="#e8e8e8" d="M14.1 26.5h8.1v2h-8.1z"/><path d="M54.6 20.6s-9 7.6-22.4 9.1c-15.3 1.7-11.9 20 1.9 18.5c9.8-1.1 18-11.9 18-11.9L45.9 38s5.9-4.6 8.2-9.3l-8.8 3.6s4.7-2.4 9.3-11.7" fill="#89664c"/><g fill="#d3976e"><path d="M31.9 38.8c-.2-1-.8-1.7-1.6-2.2c.1-.3.2-.7.1-1.1c-.2-1.1-1.2-1.9-2.4-1.7c-.2 0-.4.1-.5.2c.9.1 1.7.8 1.8 1.7c.1.4 0 .8-.1 1.2c.7.4 1.2 1.1 1.3 1.9c.2.9-.1 1.8-.7 2.4c.5.3.9.8 1.1 1.5c.2 1-.4 2-1.3 2.3h.4c1.1-.2 1.9-1.3 1.7-2.4c-.1-.5-.3-.9-.6-1.2c.7-.6 1-1.6.8-2.6"/><path d="M37.3 37.1c-.2-1-.8-1.8-1.6-2.2c.1-.3.2-.7.1-1.1c-.2-1.1-1.2-1.9-2.4-1.7c-.2 0-.4.1-.5.2c.9.1 1.7.8 1.8 1.7c.1.4 0 .9-.2 1.2c.7.4 1.2 1.1 1.3 1.9c.2.9-.2 1.8-.7 2.4c.5.3.9.8 1 1.5c.2 1-.4 2-1.3 2.3h.4c1.1-.2 1.9-1.3 1.7-2.4c-.1-.5-.3-.9-.6-1.1c.8-.7 1.2-1.7 1-2.7"/><path d="M42.9 35.2c-.2-1-.9-1.7-1.8-2c.1-.4.1-.7 0-1.1c-.3-1.1-1.4-1.7-2.5-1.4c-.2 0-.4.1-.5.2c.9 0 1.7.6 2 1.5c.1.4.1.8 0 1.2c.7.3 1.3.9 1.5 1.8c.2.9 0 1.8-.5 2.4c.6.2 1 .7 1.2 1.4c.2 1-.2 2-1.1 2.4c.2 0 .3 0 .4-.1c1.1-.3 1.7-1.4 1.5-2.5c-.1-.5-.4-.8-.7-1.1c.5-.7.8-1.7.5-2.7"/></g><g fill="#83bf4f"><path d="M24 8.6s1.5 2.5 4 .8c0 0-1.3 3.2-4.9 2.1l.9-2.9"/><path d="M25.3 11.6s1.8.5 3.7-.9c0 0-1.1 2.9-3.7 3.4c0 .1-2.7-2.8 0-2.5"/><path d="M25.3 14.2s1.6.9 3.2-.5c0 0-1.2 3.1-4.4 2.5c0 0-.6-2.5 1.2-2"/><path d="M16.5 6.1s-.1-1.2-1.5-2.2c0 0 1.8-.1 3.2 2.2c0 0-.5.7-1.7 0"/><path d="M19.5 6.1s.1-1.2 1.5-2.2c0 0-1.8-.1-3.2 2.2c-.1 0 .5.7 1.7 0"/><path d="M17.4 6.7s-.5-1.8 1.2-4.7c0 0-.4 3.6.3 5.3c0 0-.8-.1-1.5-.6"/></g><path d="M22.4 40.8c.9 4.4 5.2 8.2 11.7 7.4c9.8-1.1 18-11.9 18-11.9s-8.9 9.9-19.2 9.9c-7.7.1-9.9-3.2-10.5-5.4" fill="#594640"/><path d="M13.7 13.4c0-1.3 1-2.6 2.3-2.6c1.3 0 2.3 1.4 2.3 2.6s-1 1.8-2.3 1.8c-1.3 0-2.3-.5-2.3-1.8" fill="#3e4347"/></g></svg>